<svg width="159" height="55" viewBox="0 0 159 55" fill="none" xmlns="http://www.w3.org/2000/svg">
<path d="M14.7614 46.5114C12.1364 46.5114 9.86932 45.9659 7.96023 44.875C6.0625 43.7727 4.60227 42.2159 3.57955 40.2045C2.55682 38.1818 2.04545 35.8011 2.04545 33.0625C2.04545 30.3693 2.55682 28.0057 3.57955 25.9716C4.61364 23.9261 6.05682 22.3352 7.90909 21.1989C9.76136 20.0511 11.9375 19.4773 14.4375 19.4773C16.0511 19.4773 17.5739 19.7386 19.0057 20.2614C20.4489 20.7727 21.7216 21.5682 22.8239 22.6477C23.9375 23.7273 24.8125 25.1023 25.4489 26.7727C26.0852 28.4318 26.4034 30.4091 26.4034 32.7045V34.5966H4.94318V30.4375H20.4886C20.4773 29.2557 20.2216 28.2045 19.7216 27.2841C19.2216 26.3523 18.5227 25.6193 17.625 25.0852C16.7386 24.5511 15.7045 24.2841 14.5227 24.2841C13.2614 24.2841 12.1534 24.5909 11.1989 25.2045C10.2443 25.8068 9.5 26.6023 8.96591 27.5909C8.44318 28.5682 8.17614 29.642 8.16477 30.8125V34.4432C8.16477 35.9659 8.44318 37.2727 9 38.3636C9.55682 39.4432 10.3352 40.2727 11.3352 40.8523C12.3352 41.4205 13.5057 41.7045 14.8466 41.7045C15.7443 41.7045 16.5568 41.5795 17.2841 41.3295C18.0114 41.0682 18.642 40.6875 19.1761 40.1875C19.7102 39.6875 20.1136 39.0682 20.3864 38.3295L26.1477 38.9773C25.7841 40.5 25.0909 41.8295 24.0682 42.9659C23.0568 44.0909 21.7614 44.9659 20.1818 45.5909C18.6023 46.2045 16.7955 46.5114 14.7614 46.5114ZM37.794 11.0909V46H31.6236V11.0909H37.794ZM55.7301 46.5114C53.1051 46.5114 50.8381 45.9659 48.929 44.875C47.0313 43.7727 45.571 42.2159 44.5483 40.2045C43.5256 38.1818 43.0142 35.8011 43.0142 33.0625C43.0142 30.3693 43.5256 28.0057 44.5483 25.9716C45.5824 23.9261 47.0256 22.3352 48.8778 21.1989C50.7301 20.0511 52.9062 19.4773 55.4062 19.4773C57.0199 19.4773 58.5426 19.7386 59.9744 20.2614C61.4176 20.7727 62.6903 21.5682 63.7926 22.6477C64.9063 23.7273 65.7813 25.1023 66.4176 26.7727C67.054 28.4318 67.3722 30.4091 67.3722 32.7045V34.5966H45.9119V30.4375H61.4574C61.446 29.2557 61.1903 28.2045 60.6903 27.2841C60.1903 26.3523 59.4915 25.6193 58.5938 25.0852C57.7074 24.5511 56.6733 24.2841 55.4915 24.2841C54.2301 24.2841 53.1222 24.5909 52.1676 25.2045C51.2131 25.8068 50.4688 26.6023 49.9347 27.5909C49.4119 28.5682 49.1449 29.642 49.1335 30.8125V34.4432C49.1335 35.9659 49.4119 37.2727 49.9688 38.3636C50.5256 39.4432 51.304 40.2727 52.304 40.8523C53.304 41.4205 54.4744 41.7045 55.8153 41.7045C56.7131 41.7045 57.5256 41.5795 58.2528 41.3295C58.9801 41.0682 59.6108 40.6875 60.1449 40.1875C60.679 39.6875 61.0824 39.0682 61.3551 38.3295L67.1165 38.9773C66.7528 40.5 66.0597 41.8295 65.0369 42.9659C64.0256 44.0909 62.7301 44.9659 61.1506 45.5909C59.571 46.2045 57.7642 46.5114 55.7301 46.5114ZM84.0128 46.5114C81.3991 46.5114 79.1548 45.9375 77.2798 44.7898C75.4162 43.642 73.9787 42.0568 72.9673 40.0341C71.9673 38 71.4673 35.6591 71.4673 33.0114C71.4673 30.3523 71.9787 28.0057 73.0014 25.9716C74.0241 23.9261 75.4673 22.3352 77.331 21.1989C79.206 20.0511 81.4219 19.4773 83.9787 19.4773C86.1037 19.4773 87.9844 19.8693 89.6207 20.6534C91.2685 21.4261 92.581 22.5227 93.5582 23.9432C94.5355 25.3523 95.0923 27 95.2287 28.8864H89.331C89.0923 27.625 88.5241 26.5739 87.6264 25.733C86.7401 24.8807 85.5526 24.4545 84.0639 24.4545C82.8026 24.4545 81.6946 24.7955 80.7401 25.4773C79.7855 26.1477 79.0412 27.1136 78.5071 28.375C77.9844 29.6364 77.723 31.1477 77.723 32.9091C77.723 34.6932 77.9844 36.2273 78.5071 37.5114C79.0298 38.7841 79.7628 39.767 80.706 40.4602C81.6605 41.142 82.7798 41.483 84.0639 41.483C84.973 41.483 85.7855 41.3125 86.5014 40.9716C87.2287 40.6193 87.8366 40.1136 88.3253 39.4545C88.8139 38.7955 89.1491 37.9943 89.331 37.0511H95.2287C95.081 38.9034 94.5355 40.5455 93.5923 41.9773C92.6491 43.3977 91.3651 44.5114 89.7401 45.3182C88.1151 46.1136 86.206 46.5114 84.0128 46.5114ZM113.369 19.8182V24.5909H98.3182V19.8182H113.369ZM102.034 13.5455H108.205V38.125C108.205 38.9545 108.33 39.5909 108.58 40.0341C108.841 40.4659 109.182 40.7614 109.602 40.9205C110.023 41.0795 110.489 41.1591 111 41.1591C111.386 41.1591 111.739 41.1307 112.057 41.0739C112.386 41.017 112.636 40.9659 112.807 40.9205L113.847 45.7443C113.517 45.858 113.045 45.983 112.432 46.1193C111.83 46.2557 111.091 46.3352 110.216 46.358C108.67 46.4034 107.278 46.1705 106.04 45.6591C104.801 45.1364 103.818 44.3295 103.091 43.2386C102.375 42.1477 102.023 40.7841 102.034 39.1477V13.5455ZM118.53 46V19.8182H124.513V24.1818H124.786C125.263 22.6705 126.081 21.5057 127.24 20.6875C128.411 19.858 129.746 19.4432 131.246 19.4432C131.587 19.4432 131.967 19.4602 132.388 19.4943C132.82 19.517 133.178 19.5568 133.462 19.6136V25.2898C133.2 25.1989 132.786 25.1193 132.217 25.0511C131.661 24.9716 131.121 24.9318 130.598 24.9318C129.473 24.9318 128.462 25.1761 127.564 25.6648C126.678 26.142 125.979 26.8068 125.467 27.6591C124.956 28.5114 124.7 29.4943 124.7 30.608V46H118.53Z" fill="black"/>
<ellipse cx="147" cy="32.2414" rx="12" ry="11.3793" fill="#FFD912"/>
<ellipse cx="147" cy="32.2414" rx="6.35294" ry="6.02434" fill="#2A2828"/>
</svg>
