<svg width="214" height="78" viewBox="0 0 214 78" fill="none" xmlns="http://www.w3.org/2000/svg">
<path d="M18.944 62.64C15.488 62.64 12.4587 61.9147 9.856 60.464C7.296 59.0133 5.29067 57.008 3.84 54.448C2.432 51.888 1.728 48.944 1.728 45.616C1.728 42.288 2.432 39.3653 3.84 36.848C5.29067 34.288 7.296 32.304 9.856 30.896C12.416 29.4453 15.4027 28.72 18.816 28.72C22.0587 28.72 24.8747 29.4027 27.264 30.768C29.6533 32.0907 31.5093 33.968 32.832 36.4C34.1547 38.832 34.816 41.6693 34.816 44.912C34.816 45.5093 34.7947 46.064 34.752 46.576C34.7093 47.088 34.6453 47.6 34.56 48.112H6.72V42.48H28.352L26.688 44.016C26.688 40.944 25.984 38.64 24.576 37.104C23.168 35.568 21.2053 34.8 18.688 34.8C15.9573 34.8 13.7813 35.7387 12.16 37.616C10.5813 39.4933 9.792 42.2027 9.792 45.744C9.792 49.2427 10.5813 51.9307 12.16 53.808C13.7813 55.6427 16.064 56.56 19.008 56.56C20.7147 56.56 22.208 56.24 23.488 55.6C24.768 54.96 25.7067 53.9787 26.304 52.656H33.92C32.8533 55.728 31.04 58.16 28.48 59.952C25.9627 61.744 22.784 62.64 18.944 62.64ZM40.8505 62V15.92H48.9145V62H40.8505ZM72.1315 62.64C68.6755 62.64 65.6462 61.9147 63.0435 60.464C60.4835 59.0133 58.4782 57.008 57.0275 54.448C55.6195 51.888 54.9155 48.944 54.9155 45.616C54.9155 42.288 55.6195 39.3653 57.0275 36.848C58.4782 34.288 60.4835 32.304 63.0435 30.896C65.6035 29.4453 68.5902 28.72 72.0035 28.72C75.2462 28.72 78.0622 29.4027 80.4515 30.768C82.8408 32.0907 84.6968 33.968 86.0195 36.4C87.3422 38.832 88.0035 41.6693 88.0035 44.912C88.0035 45.5093 87.9822 46.064 87.9395 46.576C87.8968 47.088 87.8328 47.6 87.7475 48.112H59.9075V42.48H81.5395L79.8755 44.016C79.8755 40.944 79.1715 38.64 77.7635 37.104C76.3555 35.568 74.3928 34.8 71.8755 34.8C69.1448 34.8 66.9688 35.7387 65.3475 37.616C63.7688 39.4933 62.9795 42.2027 62.9795 45.744C62.9795 49.2427 63.7688 51.9307 65.3475 53.808C66.9688 55.6427 69.2515 56.56 72.1955 56.56C73.9022 56.56 75.3955 56.24 76.6755 55.6C77.9555 54.96 78.8942 53.9787 79.4915 52.656H87.1075C86.0408 55.728 84.2275 58.16 81.6675 59.952C79.1502 61.744 75.9715 62.64 72.1315 62.64ZM108.62 62.64C105.334 62.64 102.433 61.9147 99.9155 60.464C97.4408 59.0133 95.4782 57.008 94.0275 54.448C92.6195 51.8453 91.9155 48.9013 91.9155 45.616C91.9155 42.3307 92.6195 39.4293 94.0275 36.912C95.4782 34.352 97.4408 32.3467 99.9155 30.896C102.433 29.4453 105.334 28.72 108.62 28.72C111.308 28.72 113.74 29.232 115.916 30.256C118.092 31.2373 119.884 32.6453 121.292 34.48C122.7 36.272 123.596 38.3627 123.979 40.752H116.236C115.766 39.0027 114.87 37.6373 113.548 36.656C112.225 35.6747 110.625 35.184 108.748 35.184C106.998 35.184 105.484 35.6107 104.204 36.464C102.966 37.3173 102.006 38.5333 101.324 40.112C100.641 41.6907 100.3 43.5253 100.3 45.616C100.3 47.7493 100.641 49.6053 101.324 51.184C102.006 52.7627 102.988 54 104.268 54.896C105.548 55.7493 107.041 56.176 108.748 56.176C110.625 56.176 112.225 55.6853 113.548 54.704C114.87 53.7227 115.766 52.3573 116.236 50.608H123.979C123.596 52.9973 122.678 55.1093 121.228 56.944C119.82 58.736 118.028 60.144 115.852 61.168C113.718 62.1493 111.308 62.64 108.62 62.64ZM144.132 62.64C140.121 62.64 137.156 61.7013 135.236 59.824C133.358 57.904 132.42 55.0453 132.42 51.248V21.936L140.548 18.928V51.44C140.548 53.0187 140.974 54.192 141.828 54.96C142.681 55.728 144.025 56.112 145.86 56.112C146.585 56.112 147.225 56.0693 147.78 55.984C148.377 55.856 148.932 55.7067 149.444 55.536V61.808C148.932 62.064 148.206 62.256 147.268 62.384C146.329 62.5547 145.284 62.64 144.132 62.64ZM126.148 35.696V29.36H149.444V35.696H126.148ZM155.476 62V29.36H163.348V37.232H163.54V62H155.476ZM163.54 44.976L162.708 37.232C163.476 34.4587 164.777 32.3467 166.612 30.896C168.446 29.4453 170.644 28.72 173.204 28.72C174.1 28.72 174.74 28.8053 175.124 28.976V36.592C174.91 36.5067 174.612 36.464 174.228 36.464C173.844 36.4213 173.374 36.4 172.82 36.4C169.705 36.4 167.38 37.0827 165.844 38.448C164.308 39.8133 163.54 41.9893 163.54 44.976Z" fill="#2A2828"/>
<circle cx="190.5" cy="46.5" r="16.5" fill="#FED700"/>
<circle cx="190.5" cy="46.5" r="8.73529" fill="#2A2828"/>
</svg>
